<svg width="102" height="105" viewBox="0 0 102 105" fill="none" xmlns="http://www.w3.org/2000/svg">
<path d="M9.39317 42.1628C9.84545 43.3949 14.071 45.6885 15.2171 47.2571C14.4068 48.8381 10.4046 49.4504 9.78881 51.1609C9.24242 52.6787 9.03291 54.2537 8.36449 55.7391C7.27473 58.1608 6.41796 60.6669 5.00717 62.9398C3.15789 65.9192 2.39312 69.6751 1.95505 73.1249C1.39091 77.5674 1.20376 82.6635 3.41328 86.7576C5.55552 90.7271 9.48935 94.141 13.5418 96.0949C15.5285 97.0528 17.5849 97.6435 19.793 97.6435C21.7237 97.6435 23.5471 97.1466 25.4563 96.9201C32.617 96.0705 40.8284 93.6086 45.5551 87.8315C46.0968 87.1694 45.2524 89.516 45.1368 90.3637C44.9779 91.5295 44.9934 92.9114 45.1934 94.0714C45.5099 95.9074 46.5363 97.8086 47.9403 99.0565C51.1796 101.936 56.1253 102.632 60.2731 102.719C65.0566 102.82 69.284 101.954 73.9398 100.831C77.9223 99.8707 82.1607 99.0029 85.7865 96.9992C88.4508 95.5268 90.3126 93.1829 91.8455 90.6124C92.7852 89.0367 93.6994 87.6304 93.6994 85.729C93.6994 83.1653 92.7233 80.6262 91.9812 78.223C91.0728 75.2817 90.4515 72.4639 88.8047 69.8354C86.7539 66.5619 84.9589 63.1522 82.9153 59.8764C81.1353 57.0232 79.2134 54.2259 77.9414 51.0931C77.6296 50.3251 76.4229 48.3301 77.6023 47.8827C79.6064 47.1226 81.6488 46.4513 83.6613 45.7123C91.6242 42.7885 96.7646 35.0098 98.9671 27.151C99.9381 23.6864 100.646 20.8973 99.4193 17.4746C99.0612 16.4758 98.1722 15.6619 97.4524 14.9086C96.4335 13.8423 95.3181 12.5002 93.9255 11.9356C91.8437 11.0916 89.8029 10.1282 87.6178 9.56172C85.2002 8.93494 82.4709 9.13217 79.9988 9.13217C74.7705 9.13217 69.2563 9.14196 64.1052 10.1948C61.3063 10.7668 58.4424 11.2232 56.0114 12.8173C55.6642 13.045 53.4614 15.5326 53.1854 15.2816C52.4447 14.6083 52.2575 13.0744 51.795 12.1956C51.1465 10.9635 50.2274 9.68925 49.3194 8.63478C46.902 5.82748 44.9177 4.9357 41.3386 4.04531C39.0439 3.47442 36.7963 3.14908 34.4544 2.91489C31.9772 2.66717 29.4829 2.04416 26.9824 2.25925C18.5539 2.98428 9.21073 8.20189 6.11497 16.4572C5.32012 18.5768 4.66805 20.7512 4.91673 23.0249C5.26448 26.2044 5.55228 29.5141 6.31845 32.6222C7.10937 35.8306 8.25389 39.0593 9.39317 42.1628Z" fill="white"/>
<path d="M15.5 47.8827C15.3624 46.369 9.9104 43.5718 9.39317 42.1628C8.25389 39.0593 7.10937 35.8306 6.31845 32.6222C5.55228 29.5141 5.26448 26.2044 4.91673 23.0249C4.66805 20.7512 5.32012 18.5768 6.11497 16.4572C9.21073 8.20189 18.5539 2.98428 26.9824 2.25925C29.4829 2.04416 31.9772 2.66717 34.4544 2.91489C36.7963 3.14908 39.0439 3.47442 41.3386 4.04531C44.9177 4.9357 46.902 5.82748 49.3194 8.63478C50.2274 9.68925 51.1465 10.9635 51.795 12.1956C52.2575 13.0744 52.4447 14.6083 53.1854 15.2816C53.4614 15.5326 55.6642 13.045 56.0114 12.8173C58.4424 11.2232 61.3063 10.7668 64.1052 10.1948C69.2563 9.14197 74.7705 9.13217 79.9988 9.13217C82.4709 9.13217 85.2002 8.93494 87.6178 9.56172C89.8029 10.1282 91.8437 11.0916 93.9255 11.9356C95.3181 12.5002 96.4335 13.8423 97.4524 14.9086C98.1723 15.6619 99.0612 16.4758 99.4193 17.4746C100.646 20.8973 99.9381 23.6864 98.9671 27.151C96.7646 35.0098 91.6242 42.7885 83.6613 45.7123C81.6488 46.4513 79.6064 47.1226 77.6023 47.8827C76.4229 48.3301 77.6296 50.3251 77.9414 51.0931C79.2134 54.2259 81.1353 57.0232 82.9153 59.8764C84.9589 63.1522 86.7539 66.5619 88.8047 69.8354C90.4515 72.4639 91.0728 75.2817 91.9812 78.223C92.7233 80.6262 93.6994 83.1653 93.6994 85.729C93.6994 87.6304 92.7852 89.0367 91.8455 90.6124C90.3126 93.1829 88.4508 95.5268 85.7865 96.9992C82.1607 99.0029 77.9223 99.8707 73.9398 100.831C69.284 101.954 65.0566 102.82 60.2731 102.719C56.1253 102.632 51.1796 101.936 47.9403 99.0565C46.5363 97.8086 45.5099 95.9074 45.1934 94.0714C44.9934 92.9114 44.9779 91.5295 45.1368 90.3637C45.2524 89.516 46.0968 87.1694 45.5551 87.8315C40.8284 93.6086 32.617 96.0705 25.4563 96.9201C23.5471 97.1466 21.7237 97.6435 19.793 97.6435C17.5849 97.6435 15.5285 97.0528 13.5418 96.0949C9.48935 94.141 5.55552 90.7271 3.41328 86.7576C1.20376 82.6635 1.39091 77.5674 1.95505 73.1249C2.39312 69.6751 3.15789 65.9192 5.00717 62.9398C6.41796 60.6669 7.27473 58.1608 8.36449 55.7391C9.03291 54.2537 9.24242 52.6787 9.78881 51.1609C10.4285 49.3841 14.722 48.7923 15.2965 47.0688" stroke="black" stroke-width="3" stroke-linecap="round"/>
<path d="M62.6893 75.4434L46.9936 52.639L44.7584 49.3927L26.5454 22.9308H34.3798L49.1089 44.3312L51.3439 47.5774L70.5237 75.4434H62.6893ZM73.7625 73.2159L53.9937 44.4956L51.7587 41.2474L37.6172 20.7028L36.4452 19.0002H19.0684L23.3063 25.1584L42.1088 52.478L44.3439 55.7228L59.4515 77.6734L60.6237 79.374H78.0005L73.7625 73.2159Z" fill="black"/>
<path d="M44.758 49.3927L46.9932 52.639L44.3435 55.7228L24.0133 79.374H19L42.1084 52.478L44.758 49.3927Z" fill="black"/>
<path d="M75.909 18.9999L53.9941 44.4953L51.3444 47.5771L49.1094 44.3309L51.7591 41.2471L66.604 23.9686L70.8957 18.9999H75.909Z" fill="black"/>
</svg>
