<svg width="93" height="96" viewBox="0 0 93 96" fill="none" xmlns="http://www.w3.org/2000/svg">
<path d="M3.66195 34.9652C2.45972 43.2305 2.78716 50.8595 2.78716 59.1763C2.11462 60.1851 1.90612 61.6161 2.5556 62.7527C3.37505 64.1867 3.58275 65.8888 4.5882 67.281C5.56336 68.6312 6.57228 69.7564 7.64997 71.0374C9.48508 73.2188 11.0488 75.305 13.5805 76.775C16.326 78.3692 18.9538 80.091 21.6595 81.7408C24.5208 83.4855 27.1407 85.5831 29.9957 87.324C32.8138 89.0423 35.355 91.2 38.5764 92.1739C42.3921 93.3275 46.2022 93.6791 50.2059 93.6791C51.8053 93.6791 53.3464 93.2544 54.9401 93.216C56.8517 93.1699 58.7843 92.9613 60.6005 92.3412C62.6138 91.6537 64.4826 90.6656 66.4153 89.794C68.3274 88.9317 70.3543 88.3337 72.2815 87.5041C74.9274 86.3651 77.2718 84.6086 79.6658 83.0272C81.1998 82.014 82.8277 81.124 84.297 80.0169C89.6274 76.0009 90.1668 69.991 90.8837 63.8462C91.4502 58.9903 90.0861 54.2243 90.0861 49.3864C90.0861 46.0158 89.3914 42.7288 89.3914 39.3778C89.3914 37.2947 89.1598 35.2253 89.1598 33.1384C89.1598 31.3372 88.7356 30.2914 88.0709 28.6531L88.0535 28.6101C87.3275 26.8204 87.028 24.8773 86.7928 22.9754C86.6242 21.613 85.7475 20.6996 85.0432 19.5792C83.1496 16.5667 80.4362 15.5277 77.5431 13.4814C76.5712 12.7939 75.8553 12.1661 74.7901 11.5774C73.9072 11.0895 73.0176 10.6488 72.2558 9.98223C71.3028 9.14839 69.2674 8.36098 68.0362 8.00108C65.053 7.12906 62.1379 6.09146 59.2111 5.04223C57.1145 4.29061 55.0963 3.22849 52.8818 2.90672C49.7151 2.4466 46.7565 1.80436 43.5936 2.26349C41.1168 2.62302 38.92 3.80961 36.5181 4.42474C33.8238 5.11473 31.6398 7.2264 29.3139 8.67004C27.3356 9.89792 25.0728 10.9995 23.0103 12.0663C17.4462 14.9442 11.4824 17.4786 7.40554 22.3708C4.28359 26.1171 4.31289 30.49 3.66195 34.9652Z" fill="white" stroke="black" stroke-width="3" stroke-linecap="round"/>
<path d="M18.5566 47.7674L27.4795 43.8636V33.8253L37.5178 39.4021L46.4407 35.4984L27.4795 24.3447L18.5566 28.8062V47.7674Z" fill="black"/>
<path d="M75.9989 28.8071L68.1914 24.9033L58.1531 30.4801L64.8453 33.8262L18 55.5758V66.7295L25.2499 70.0755L35.8458 65.6141L29.1536 61.7103L75.9989 40.5184V28.8071Z" fill="black"/>
<path d="M76.0013 65.6153V47.7695L67.636 51.1156V61.1539L57.0401 56.1348L48.1172 61.1539L67.636 70.6345L76.0013 65.6153Z" fill="black"/>
<path d="M47.5564 71.1917L42.5372 68.9609L33.0566 73.4224L47.5564 81.2299L62.0561 73.4224L53.6909 68.9609L47.5564 71.1917Z" fill="black"/>
<path d="M47.5564 14.3076L33.0566 21.5575L41.9795 27.1343L47.5564 24.3459L52.0178 27.1343L62.0561 22.6728L47.5564 14.3076Z" fill="black"/>
</svg>
