<svg width="106" height="83" viewBox="0 0 106 83" fill="none" xmlns="http://www.w3.org/2000/svg">
<path d="M8.42191 48.3523C10.904 50.5217 13.2891 53.061 16.1567 54.7333C16.2465 55.1592 16.2194 55.5798 16.3386 55.9968C16.3798 56.1412 16.4977 56.4495 16.5588 56.5928C18.4069 60.9288 21.4736 65.4107 24.5921 68.9278C27.9608 72.7271 33.0732 73.7252 37.834 74.5511C43.2387 75.4886 49.6078 74.3761 54.9371 73.1517C55.2746 73.0742 57.9127 72.5334 58.0597 73.0481C58.2016 73.5446 58.3339 74.0838 58.5391 74.6029C59.3077 76.5469 60.7423 77.5503 62.2448 78.9694C64.2963 80.9069 66.4422 81.2927 69.2674 81.3146C73.5556 81.3478 77.689 81.5161 81.8486 80.3817C84.128 79.76 86.4465 79.0619 88.1586 77.3498C89.8566 75.6518 91.0342 73.0899 91.657 70.8065C93.0943 65.5362 94.5749 60.4426 95.4922 55.038C96.5566 48.7665 98.3289 43.0125 100.481 37.0539C101.659 33.7907 102.248 30.5027 102.981 27.1289C104.14 21.7973 104.984 16.5118 104.018 11.0623C103.61 8.75878 102.789 6.8477 101.452 4.92078C100.998 4.26581 100.297 2.72991 99.5866 2.30349C98.6413 1.73636 96.0358 1.85747 94.9091 1.79817C91.7467 1.63173 88.1735 2.49526 85.1267 3.23638C81.3136 4.16388 77.2747 4.62626 73.3618 4.92078C67.4288 5.36735 61.3649 5.58011 55.4813 6.46265C53.0838 6.82228 50.6453 7.73159 48.2773 8.31548C46.3332 8.79484 44.4856 9.50657 42.5633 10.0647C38.8168 11.1523 35.092 12.6458 31.4981 14.159C28.8645 15.268 26.0659 15.8587 23.4001 16.9448C18.9403 18.7617 14.2733 20.7648 10.1452 23.2548C8.19684 24.43 6.92814 25.9702 5.36408 27.5694C4.31289 28.6442 3.26259 29.5989 2.61722 30.99C1.42937 33.5505 1.67184 36.3593 2.34513 39.0103C3.30064 42.7727 5.51817 45.8144 8.42191 48.3523Z" fill="white"/>
<path d="M16.5588 54.9603C13.5101 53.2973 11.0191 50.6223 8.42191 48.3523C5.51817 45.8143 3.30064 42.7727 2.34513 39.0103C1.67184 36.3593 1.42937 33.5505 2.61722 30.99C3.26259 29.5989 4.31289 28.6442 5.36408 27.5694C6.92814 25.9702 8.19684 24.43 10.1452 23.2548C14.2733 20.7648 18.9403 18.7617 23.4001 16.9448C26.0659 15.8587 28.8645 15.268 31.4981 14.159C35.092 12.6458 38.8168 11.1523 42.5633 10.0647C44.4856 9.50657 46.3332 8.79484 48.2773 8.31548C50.6453 7.73159 53.0838 6.82228 55.4813 6.46265C61.3649 5.58011 67.4288 5.36735 73.3618 4.92078C77.2747 4.62626 81.3136 4.16388 85.1267 3.23638C88.1735 2.49526 91.7467 1.63173 94.9091 1.79817C96.0358 1.85747 98.6413 1.73636 99.5866 2.30349C100.297 2.72991 100.998 4.26581 101.452 4.92078C102.789 6.8477 103.61 8.75878 104.018 11.0623C104.984 16.5118 104.14 21.7973 102.981 27.1289C102.248 30.5027 101.659 33.7907 100.481 37.0539C98.3289 43.0125 96.5566 48.7665 95.4922 55.038C94.5749 60.4426 93.0943 65.5362 91.657 70.8065C91.0342 73.0899 89.8566 75.6518 88.1586 77.3498C86.4465 79.0619 84.128 79.76 81.8486 80.3817C77.689 81.5161 73.5556 81.3478 69.2674 81.3146C66.4422 81.2927 64.2963 80.9069 62.2448 78.9694C60.7423 77.5503 59.3077 76.5469 58.5391 74.6029C58.3339 74.0838 58.2016 73.5446 58.0597 73.0481C57.9127 72.5334 55.2746 73.0742 54.9371 73.1517C49.6078 74.3761 43.2387 75.4886 37.834 74.5511C33.0732 73.7252 27.9608 72.7271 24.5921 68.9278C21.4736 65.4107 18.4069 60.9288 16.5588 56.5928C16.4977 56.4495 16.3798 56.1412 16.3386 55.9968C16.1971 55.5018 16.2617 55.0018 16.0924 54.4938" stroke="black" stroke-width="3" stroke-linecap="round"/>
<path d="M83.8761 14.1235C83.6503 13.4581 83.3808 13.283 82.96 13.1167C82.0395 12.7752 80.4802 13.2918 80.4802 13.2918C80.4802 13.2918 25.2807 33.1476 22.1272 35.345C21.4482 35.8178 21.2207 36.0979 21.1079 36.4219C20.5627 37.9802 22.2611 38.6718 22.2611 38.6718L36.4886 43.3119C36.4886 43.3119 37.0189 43.3906 37.2079 43.2681C40.4445 41.2195 69.7719 22.6944 71.4633 22.0728C71.7302 21.994 71.9279 22.0816 71.8754 22.2654C71.1982 24.6467 45.726 47.2953 45.726 47.2953C45.726 47.2953 45.6289 47.4178 45.5677 47.5579L45.5344 47.5404L44.207 61.6618C44.207 61.6618 43.6505 65.9867 47.9739 61.6618C51.0242 58.6064 53.9755 56.05 55.4525 54.8156C60.3447 58.1949 65.6095 61.9332 67.8819 63.8855C69.0229 64.8661 69.9776 65.0236 70.7633 64.9974C72.9202 64.9186 73.5222 62.5461 73.5222 62.5461C73.5222 62.5461 83.5812 22.0378 83.9172 16.6098C83.9505 16.0758 83.996 15.7431 83.9995 15.3754C84.0056 14.8676 83.9583 14.3599 83.8761 14.1235Z" fill="black"/>
</svg>
